<?xml version="1.0" standalone="no"?>
<!DOCTYPE svg PUBLIC "-//W3C//DTD SVG 20010904//EN"
 "http://www.w3.org/TR/2001/REC-SVG-20010904/DTD/svg10.dtd">
<svg version="1.0" xmlns="http://www.w3.org/2000/svg"
 width="225.000000pt" height="225.000000pt" viewBox="0 0 225.000000 225.000000"
 preserveAspectRatio="xMidYMid meet">
<metadata>
Created by potrace 1.14, written by Peter Selinger 2001-2017
</metadata>
<g transform="translate(0.000000,225.000000) scale(0.100000,-0.100000)"
fill="#000000" stroke="none">
<path d="M1029 2177 c-51 -19 -105 -54 -127 -82 l-19 -24 -43 21 c-57 28 -141
28 -196 0 -43 -22 -98 -78 -108 -110 -5 -15 -18 -21 -56 -24 -93 -9 -177 -91
-188 -183 -4 -43 -7 -47 -54 -67 -62 -26 -140 -111 -162 -174 -39 -116 -12
-229 76 -317 52 -52 58 -63 58 -100 1 -23 9 -66 19 -94 17 -52 17 -54 -2 -110
-38 -115 -4 -240 88 -321 57 -50 119 -72 205 -72 85 0 173 41 227 106 34 40
41 44 83 44 25 1 63 7 85 15 22 8 41 15 43 15 1 0 2 -94 2 -209 l0 -209 -48
-31 c-27 -17 -58 -41 -70 -53 -25 -27 -52 -88 -52 -118 0 -20 5 -20 335 -20
330 0 335 0 335 20 0 30 -27 91 -52 118 -12 12 -43 36 -70 53 l-48 31 0 118 0
118 74 4 c64 3 80 8 119 35 l45 33 67 -35 c57 -30 76 -35 134 -35 37 0 90 8
117 17 66 22 146 102 170 171 12 34 25 53 39 56 35 9 92 64 114 109 27 56 27
137 1 196 l-20 44 21 58 c29 78 23 172 -14 245 -14 27 -32 56 -40 62 -12 10
-13 21 -6 53 12 50 -2 135 -32 195 -26 54 -87 110 -153 139 -46 20 -54 28 -65
66 -18 61 -101 141 -171 165 -84 28 -167 23 -243 -14 l-61 -31 -40 44 c-60 62
-116 88 -206 92 -47 2 -89 -2 -111 -10z m216 -76 c35 -18 61 -43 89 -83 l39
-57 36 28 c67 53 101 65 176 66 59 0 78 -4 118 -28 56 -33 103 -94 118 -153
10 -38 15 -43 53 -53 127 -32 209 -169 177 -296 -11 -45 -11 -48 20 -83 69
-78 82 -180 35 -276 l-27 -55 27 -46 c56 -96 24 -201 -74 -246 -42 -19 -50
-28 -60 -63 -24 -90 -97 -158 -192 -178 -75 -15 -150 6 -213 62 l-46 41 -23
-31 c-41 -55 -126 -92 -177 -75 -20 6 -21 13 -21 166 l0 159 110 0 110 0 0
210 0 211 30 -16 30 -16 0 116 0 115 -228 114 -227 114 -228 -114 -227 -114 0
-115 0 -116 30 16 30 16 0 -211 0 -210 110 0 110 0 0 -71 0 -70 -35 -15 c-19
-7 -65 -14 -102 -14 l-68 -1 -27 -44 c-80 -132 -268 -150 -378 -37 -73 76 -91
181 -47 276 l23 49 -23 45 c-17 34 -23 62 -23 113 0 65 -1 69 -28 83 -41 21
-98 87 -113 132 -45 135 28 277 165 320 54 17 56 19 51 45 -9 42 13 109 49
145 36 36 103 58 146 49 25 -6 29 -3 40 30 42 127 190 165 287 73 13 -12 24
-20 26 -17 97 141 220 180 352 110z m55 -671 l160 -80 0 -195 0 -195 -335 0
-335 0 0 195 0 195 158 79 c86 44 165 80 175 80 9 1 89 -35 177 -79z"/>
<path d="M1010 1185 l0 -115 115 0 115 0 0 115 0 115 -115 0 -115 0 0 -115z"/>
</g>
</svg>
